<?xml version="1.0" encoding="utf-8"?>
<!-- Generator: Adobe Illustrator 25.2.3, SVG Export Plug-In . SVG Version: 6.00 Build 0)  -->
<svg version="1.1" id="Ebene_1" xmlns="http://www.w3.org/2000/svg" xmlns:xlink="http://www.w3.org/1999/xlink" x="0px" y="0px"
	 viewBox="0 0 192 192" style="enable-background:new 0 0 192 192;" xml:space="preserve">
<style type="text/css">
	.st0{fill:url(#SVGID_1_);}
</style>
<linearGradient id="SVGID_1_" gradientUnits="userSpaceOnUse" x1="41.5719" y1="31.9518" x2="149.5265" y2="160.607">
	<stop  offset="0" style="stop-color:#E316C8"/>
	<stop  offset="0.1945" style="stop-color:#AA4BD8"/>
	<stop  offset="0.389" style="stop-color:#7978E6"/>
	<stop  offset="0.572" style="stop-color:#539CF1"/>
	<stop  offset="0.7402" style="stop-color:#38B5F9"/>
	<stop  offset="0.8882" style="stop-color:#27C5FD"/>
	<stop  offset="1" style="stop-color:#21CAFF"/>
</linearGradient>
<path class="st0" d="M150.9,159.5c-13.3,11.5-30.3,19-49,20.3v-12c15.3-1.3,29.3-7.4,40.4-16.8L150.9,159.5z M24.2,90
	C27.1,55.1,55,27.2,89.9,24.3v-12C48.3,15.2,15.1,48.4,12.1,90H24.2z M142,49.2l-37.3,55.7l-55.4,37l37.7-54.7L142,49.2z
	 M100.4,91.5c-2.3-2.3-6.1-2.3-8.5,0c-2.3,2.3-2.3,6.1,0,8.5c2.3,2.3,6.1,2.3,8.5,0C102.8,97.6,102.8,93.8,100.4,91.5z M60.5,101.9
	C60.2,100,60,98,60,96c0-19.9,16.1-36,36-36c2,0,4,0.2,5.9,0.5l6.1-4.7c-3.8-1.1-7.8-1.8-12-1.8c-23.2,0-42,18.8-42,42
	c0,4.2,0.6,8.2,1.8,12L60.5,101.9z M131.5,89.9c0.3,2,0.5,4,0.5,6.1c0,19.9-16.1,36-36,36c-2.1,0-4.1-0.2-6.1-0.5l-6.1,4.7
	c3.9,1.2,8,1.8,12.2,1.8c23.2,0,42-18.8,42-42c0-4.2-0.6-8.4-1.8-12.2L131.5,89.9z M90,167.7C55,164.8,27.2,137,24.3,102h-6
	c2.9,38.2,33.5,68.8,71.7,71.7V167.7z M102,24.3c15.4,1.3,29.4,7.4,40.5,16.8l4.2-4.2C134.5,26.3,119,19.6,102,18.3V24.3z"/>
</svg>
