<svg xmlns="http://www.w3.org/2000/svg" viewBox="0 0 408.63 112.73"><g id="Ebene_2" data-name="Ebene 2"><g id="Ebene_1-2" data-name="Ebene 1"><path d="M61,44.8a10.93,10.93,0,0,1-1.28.17,14.6,14.6,0,0,1-1.62,0,7.71,7.71,0,0,1-1.66-.15,2.41,2.41,0,0,1-1.9-1.76,6.21,6.21,0,0,1-.24-1.92V22.76h6.32V15.51H54.3V6.42H44.43v9.09H39v7.25h5.4V42.27a14.87,14.87,0,0,0,.75,5,8.08,8.08,0,0,0,5.47,5.28,15,15,0,0,0,4.37.59,19.15,19.15,0,0,0,3.3-.25,21.16,21.16,0,0,0,2.71-.6Zm-7.71,61.68V94.25a9.47,9.47,0,0,0-.73-3.86,7.72,7.72,0,0,0-2-2.76A8.37,8.37,0,0,0,47.45,86a13.56,13.56,0,0,0-4-.55,12.69,12.69,0,0,0-4.32.69,11.71,11.71,0,0,0-3.29,1.8,8.25,8.25,0,0,0-2.1,2.49,6,6,0,0,0-.74,2.8h4.52a3.32,3.32,0,0,1,.48-1.6,4.36,4.36,0,0,1,1.16-1.33,6,6,0,0,1,1.78-.91,7.56,7.56,0,0,1,2.31-.34,5.65,5.65,0,0,1,4.16,1.4,5,5,0,0,1,1.41,3.76v2.06h-4.5a19.6,19.6,0,0,0-4.88.56,11,11,0,0,0-3.73,1.65,7.46,7.46,0,0,0-2.37,2.71,8.17,8.17,0,0,0-.83,3.73,7.43,7.43,0,0,0,2.42,5.52,8.7,8.7,0,0,0,2.8,1.65,10.33,10.33,0,0,0,3.65.61,10.56,10.56,0,0,0,2.31-.26,9.5,9.5,0,0,0,2-.7,9.61,9.61,0,0,0,1.73-1,12.09,12.09,0,0,0,1.42-1.25c.06.54.14,1,.24,1.54a5.19,5.19,0,0,0,.39,1.23h4.71v-.39a11.24,11.24,0,0,1-.69-2.54A18.13,18.13,0,0,1,53.29,106.48Zm-4.49-1.63a6.31,6.31,0,0,1-1,1.46,7.61,7.61,0,0,1-1.52,1.25,8.73,8.73,0,0,1-2,.89,7.68,7.68,0,0,1-2.28.34,6.14,6.14,0,0,1-2.17-.36,4.55,4.55,0,0,1-1.58-.94,3.68,3.68,0,0,1-1-1.43,5.13,5.13,0,0,1-.32-1.77A3.93,3.93,0,0,1,39,100.66,12,12,0,0,1,45,99.45H48.8Zm11.93,7.36h4.49V74.89H60.73ZM88.53,105a6.23,6.23,0,0,1-2.45,2.8,8.28,8.28,0,0,1-4.41,1,6.34,6.34,0,0,1-1.79-.25,3.56,3.56,0,0,1-1.56-.93,4.71,4.71,0,0,1-1.09-1.82,8.6,8.6,0,0,1-.42-2.93v-17H72.32v17a14.5,14.5,0,0,0,.62,4.49,8,8,0,0,0,1.76,3,6.89,6.89,0,0,0,2.72,1.72,10.59,10.59,0,0,0,3.53.55,11.48,11.48,0,0,0,4.56-.82,8.34,8.34,0,0,0,3.14-2.27l.1,2.6H93V85.92H88.53Zm6-86.95a9.4,9.4,0,0,0-3.86-2.49,15.41,15.41,0,0,0-5-.77A12.15,12.15,0,0,0,80.12,16a13.5,13.5,0,0,0-4.33,3.47V0h-9.9V52.49h9.87V26.21a6.77,6.77,0,0,1,2.43-2.44,7.41,7.41,0,0,1,3.86-.91,9.24,9.24,0,0,1,2.51.31,4.31,4.31,0,0,1,1.87,1,4.68,4.68,0,0,1,1.14,1.93,9.52,9.52,0,0,1,.39,3V52.49h9.88V29.18A22.15,22.15,0,0,0,97,22.55a11.68,11.68,0,0,0-2.51-4.46Zm313.14,90.66a6.62,6.62,0,0,1-1.17.11,5.68,5.68,0,0,1-1.09-.11,2,2,0,0,1-.92-.45,2.27,2.27,0,0,1-.64-1,4.36,4.36,0,0,1-.25-1.64V89.39h4.91V85.92H403.6V79.55h-4.49v6.37h-4.79v3.47h4.79v16.28a9.82,9.82,0,0,0,.48,3.32,6,6,0,0,0,1.32,2.18,4.76,4.76,0,0,0,1.93,1.18,8.09,8.09,0,0,0,2.34.35,11.05,11.05,0,0,0,2.07-.17c.57-.12,1-.22,1.38-.32v-3.64Zm-301-99.07a5,5,0,0,0,1.75,1.06,7.27,7.27,0,0,0,4.58,0,4.94,4.94,0,0,0,1.74-1.06A4.72,4.72,0,0,0,115.9,8a5.32,5.32,0,0,0,0-4,4.73,4.73,0,0,0-1.11-1.62,4.94,4.94,0,0,0-1.74-1.06,6.63,6.63,0,0,0-2.29-.38,5.58,5.58,0,0,0-4.05,1.44A4.89,4.89,0,0,0,105.22,6a5.28,5.28,0,0,0,.39,2A5,5,0,0,0,106.72,9.64Zm-.92,42.85h9.91v-37H105.8ZM37.11,44.25H14V30.93H33.7v-8H14V11H37V2.73H3.76V52.49H37.11ZM15.14,106,5.08,76.83H0l13.1,35.38h4.13L30.35,76.83h-5.1ZM118.43,89.13a9.16,9.16,0,0,0-3.37-2.71,11,11,0,0,0-4.86-1,10.6,10.6,0,0,0-4.3.91A11.26,11.26,0,0,0,102.23,89a12.91,12.91,0,0,0-2.56,4.25,16.07,16.07,0,0,0-1,5.74v1a14.76,14.76,0,0,0,.85,5.1,11.75,11.75,0,0,0,2.43,4,11,11,0,0,0,3.8,2.64,12.61,12.61,0,0,0,5,1,13.13,13.13,0,0,0,3.53-.43,11,11,0,0,0,2.75-1.14,10.43,10.43,0,0,0,2.11-1.63,11.53,11.53,0,0,0,1.53-1.88l-2.75-2.14a10.18,10.18,0,0,1-2.89,2.58,7.77,7.77,0,0,1-4,1,7.21,7.21,0,0,1-5.65-2.53,8.34,8.34,0,0,1-1.56-2.75,11.24,11.24,0,0,1-.59-3.4H121v-2a20.19,20.19,0,0,0-.63-5.13A11.79,11.79,0,0,0,118.43,89.13Zm-1.91,7.53H103.35a12,12,0,0,1,.82-3.23,7.67,7.67,0,0,1,1.49-2.36,6.49,6.49,0,0,1,2-1.45,6.3,6.3,0,0,1,2.5-.49,6.08,6.08,0,0,1,2.9.63,5.58,5.58,0,0,1,1.9,1.65,6.93,6.93,0,0,1,1.1,2.31,12.7,12.7,0,0,1,.42,2.6Zm218-9A6.76,6.76,0,0,0,331.8,86a11.57,11.57,0,0,0-3.74-.55,9.8,9.8,0,0,0-8.38,4.23,6.75,6.75,0,0,0-3-3.22,9.78,9.78,0,0,0-4.51-1,10.61,10.61,0,0,0-4.51.9,9.5,9.5,0,0,0-3.29,2.5L304.25,86H300v26.29h4.5V93a6.39,6.39,0,0,1,2.19-2.72,6.49,6.49,0,0,1,3.86-1,7.92,7.92,0,0,1,2.32.31,4.3,4.3,0,0,1,2.89,2.76,7.46,7.46,0,0,1,.4,2.61v17.28h4.52V94.76a7.27,7.27,0,0,1,.57-2.15,5.63,5.63,0,0,1,1.22-1.75,6,6,0,0,1,1.83-1.18,6.45,6.45,0,0,1,2.46-.43,10,10,0,0,1,2.31.25,4.22,4.22,0,0,1,1.77.91A4.3,4.3,0,0,1,332,92.16a8,8,0,0,1,.4,2.75v17.3h4.5V94.93a13.69,13.69,0,0,0-.59-4.27,7.41,7.41,0,0,0-1.75-3Zm27.66,1.44a9.16,9.16,0,0,0-3.37-2.71,11,11,0,0,0-4.86-1,10.6,10.6,0,0,0-4.3.91A11.16,11.16,0,0,0,346,89a12.91,12.91,0,0,0-2.56,4.25,16.07,16.07,0,0,0-1,5.74v1a14.76,14.76,0,0,0,.85,5.1,11.27,11.27,0,0,0,2.43,4,11,11,0,0,0,3.8,2.64,12.61,12.61,0,0,0,5,1,13.06,13.06,0,0,0,3.52-.43,10.58,10.58,0,0,0,2.76-1.14,10.37,10.37,0,0,0,2.1-1.63,11.53,11.53,0,0,0,1.53-1.88l-2.74-2.14a10.18,10.18,0,0,1-2.89,2.58,7.87,7.87,0,0,1-4,1,7.21,7.21,0,0,1-5.65-2.53,8.14,8.14,0,0,1-1.55-2.75,10.9,10.9,0,0,1-.6-3.4h17.8v-2a20.19,20.19,0,0,0-.63-5.13,11.63,11.63,0,0,0-1.95-4.15Zm-1.91,7.53H347.14A11.61,11.61,0,0,1,348,93.4a7.7,7.7,0,0,1,1.5-2.36A5.83,5.83,0,0,1,354,89.1a6,6,0,0,1,2.89.63,5.62,5.62,0,0,1,1.91,1.65,7.1,7.1,0,0,1,1.09,2.31,12.07,12.07,0,0,1,.43,2.6ZM291.85,100a11.3,11.3,0,0,0-2.94-1.64,27.91,27.91,0,0,0-4.18-1.26,29.18,29.18,0,0,1-3.05-.82,7.89,7.89,0,0,1-1.86-.87,2.55,2.55,0,0,1-.92-1.06,3.27,3.27,0,0,1-.24-1.31,3.64,3.64,0,0,1,.29-1.42,3.23,3.23,0,0,1,.92-1.24,4.65,4.65,0,0,1,1.62-.88,7.75,7.75,0,0,1,2.39-.32,6.34,6.34,0,0,1,2.36.4,5.31,5.31,0,0,1,1.72,1A4.42,4.42,0,0,1,289,92a3.8,3.8,0,0,1,.37,1.62h4.52a7.7,7.7,0,0,0-.68-3.2,7.54,7.54,0,0,0-2-2.61,9.54,9.54,0,0,0-3.16-1.76,12.88,12.88,0,0,0-4.22-.65,12.34,12.34,0,0,0-4,.62,9.25,9.25,0,0,0-3.06,1.68,7.65,7.65,0,0,0-2,2.45,6.63,6.63,0,0,0-.69,3,5.85,5.85,0,0,0,.66,2.84,6.12,6.12,0,0,0,1.88,2.1,11.93,11.93,0,0,0,3,1.52,28.26,28.26,0,0,0,3.93,1.09,19.07,19.07,0,0,1,3.14.9,6.58,6.58,0,0,1,1.83,1.06,2.92,2.92,0,0,1,.87,1.21,4.33,4.33,0,0,1,.22,1.38,3.22,3.22,0,0,1-.37,1.49,3.46,3.46,0,0,1-1.08,1.2,5.75,5.75,0,0,1-1.76.81,9.24,9.24,0,0,1-2.4.25,9.62,9.62,0,0,1-2.14-.24,6.28,6.28,0,0,1-2-.83,4.91,4.91,0,0,1-1.49-1.52,4.73,4.73,0,0,1-.67-2.32h-4.5a7.53,7.53,0,0,0,.71,3.17A8.14,8.14,0,0,0,276,110a10.52,10.52,0,0,0,3.4,2,13.52,13.52,0,0,0,4.63.73,14.24,14.24,0,0,0,4.15-.57,9.94,9.94,0,0,0,3.21-1.59,6.89,6.89,0,0,0,2.77-5.62,6.53,6.53,0,0,0-.57-2.82A6.19,6.19,0,0,0,291.85,100Zm-25.66,0a11.64,11.64,0,0,0-2.94-1.64,30.47,30.47,0,0,0-4.18-1.26,29.18,29.18,0,0,1-3.05-.82,7.89,7.89,0,0,1-1.86-.87,2.55,2.55,0,0,1-.92-1.06A3.47,3.47,0,0,1,253,93a3.64,3.64,0,0,1,.29-1.42,3.23,3.23,0,0,1,.92-1.24,4.65,4.65,0,0,1,1.62-.88,7.75,7.75,0,0,1,2.39-.32,6.34,6.34,0,0,1,2.36.4,5.31,5.31,0,0,1,1.72,1A4.42,4.42,0,0,1,263.37,92a3.8,3.8,0,0,1,.37,1.62h4.52a7.7,7.7,0,0,0-.68-3.2,7.54,7.54,0,0,0-2-2.61,9.54,9.54,0,0,0-3.16-1.76,12.88,12.88,0,0,0-4.22-.65,12.34,12.34,0,0,0-4,.62,9.25,9.25,0,0,0-3.06,1.68,7.65,7.65,0,0,0-2,2.45,6.63,6.63,0,0,0-.69,3,5.85,5.85,0,0,0,.66,2.84,6.12,6.12,0,0,0,1.88,2.1,11.93,11.93,0,0,0,3,1.52,28.26,28.26,0,0,0,3.93,1.09,19.07,19.07,0,0,1,3.14.9,6.58,6.58,0,0,1,1.83,1.06,2.92,2.92,0,0,1,.87,1.21,4.62,4.62,0,0,1,.21,1.38,3.21,3.21,0,0,1-.36,1.49,3.46,3.46,0,0,1-1.08,1.2,5.75,5.75,0,0,1-1.76.81,9.45,9.45,0,0,1-2.43.29,9.62,9.62,0,0,1-2.14-.24,6.28,6.28,0,0,1-2-.83,5.06,5.06,0,0,1-1.5-1.52,4.83,4.83,0,0,1-.66-2.32h-4.5a7.53,7.53,0,0,0,.71,3.17,8.19,8.19,0,0,0,2.06,2.75,10.48,10.48,0,0,0,3.37,1.93,13.52,13.52,0,0,0,4.63.73,14.24,14.24,0,0,0,4.15-.57,9.94,9.94,0,0,0,3.21-1.59,7.12,7.12,0,0,0,2-2.46,7,7,0,0,0,.72-3.16,6.53,6.53,0,0,0-.57-2.82A6,6,0,0,0,266.19,100Zm-52,0a11.64,11.64,0,0,0-2.94-1.64A28.6,28.6,0,0,0,207,97.05a29,29,0,0,1-3-.82,7.89,7.89,0,0,1-1.86-.87,2.55,2.55,0,0,1-.92-1.06A3.39,3.39,0,0,1,201,93a3.64,3.64,0,0,1,.29-1.42,3.23,3.23,0,0,1,.92-1.24,4.65,4.65,0,0,1,1.62-.88,7.75,7.75,0,0,1,2.39-.32,6.34,6.34,0,0,1,2.36.4,5.31,5.31,0,0,1,1.72,1,4.43,4.43,0,0,1,1,1.46,3.8,3.8,0,0,1,.37,1.62h4.52a7.7,7.7,0,0,0-.68-3.2,7.54,7.54,0,0,0-2-2.61,9.54,9.54,0,0,0-3.16-1.76,12.88,12.88,0,0,0-4.22-.65,12.34,12.34,0,0,0-4,.62,9.25,9.25,0,0,0-3.06,1.68,7.65,7.65,0,0,0-2,2.45,6.63,6.63,0,0,0-.69,3,5.85,5.85,0,0,0,.66,2.84,6.31,6.31,0,0,0,1.88,2.1,11.93,11.93,0,0,0,3,1.52,28.26,28.26,0,0,0,3.93,1.09,19.07,19.07,0,0,1,3.14.9,6.58,6.58,0,0,1,1.83,1.06,2.92,2.92,0,0,1,.87,1.21,4.33,4.33,0,0,1,.22,1.38,3.22,3.22,0,0,1-.37,1.49,3.46,3.46,0,0,1-1.08,1.2,5.75,5.75,0,0,1-1.76.81,9.45,9.45,0,0,1-2.43.29,9.62,9.62,0,0,1-2.14-.24,6.28,6.28,0,0,1-2-.83,4.91,4.91,0,0,1-1.49-1.52,4.73,4.73,0,0,1-.67-2.32h-4.5a7.53,7.53,0,0,0,.71,3.17,8.32,8.32,0,0,0,2.06,2.75,10.48,10.48,0,0,0,3.37,1.93,13.52,13.52,0,0,0,4.63.73,14.24,14.24,0,0,0,4.15-.57,9.94,9.94,0,0,0,3.21-1.59,6.89,6.89,0,0,0,2.77-5.62,6.53,6.53,0,0,0-.57-2.82,6.16,6.16,0,0,0-1.68-2.11Zm26.75-10.82a9.16,9.16,0,0,0-3.37-2.71,11,11,0,0,0-4.86-1,10.6,10.6,0,0,0-4.3.91,11.09,11.09,0,0,0-3.7,2.62,12.91,12.91,0,0,0-2.56,4.25,16.07,16.07,0,0,0-1,5.74v1a14.76,14.76,0,0,0,.85,5.1,11.27,11.27,0,0,0,2.43,4,11,11,0,0,0,3.8,2.64,12.61,12.61,0,0,0,5,1,13.06,13.06,0,0,0,3.52-.43,10.58,10.58,0,0,0,2.76-1.14,10.37,10.37,0,0,0,2.1-1.63,11.53,11.53,0,0,0,1.53-1.88l-2.74-2.14a10.18,10.18,0,0,1-2.89,2.58,7.87,7.87,0,0,1-4,1,7.21,7.21,0,0,1-5.65-2.53,8.14,8.14,0,0,1-1.55-2.75,10.9,10.9,0,0,1-.6-3.4h17.81v-2a20.19,20.19,0,0,0-.63-5.13,11.53,11.53,0,0,0-2-4.15ZM239,96.66H225.83a11.61,11.61,0,0,1,.81-3.23,7.7,7.7,0,0,1,1.5-2.36,5.83,5.83,0,0,1,4.5-1.94,6,6,0,0,1,2.89.63,5.62,5.62,0,0,1,1.91,1.65,7.1,7.1,0,0,1,1.09,2.31,12.07,12.07,0,0,1,.43,2.6ZM146.78,52.49h11.34L143.6,30.93,157,15.51H145.1l-9.46,11.11-1.92,2.46V0h-9.87V52.49h9.87V41.21l3.56-3.55ZM388.4,87.63A6.19,6.19,0,0,0,385.75,86a11,11,0,0,0-3.47-.53,9.79,9.79,0,0,0-4.48,1,10.28,10.28,0,0,0-3.4,2.78l-.14-3.3H370v26.29h4.5V93.48a7.84,7.84,0,0,1,2.58-3.07,6.51,6.51,0,0,1,3.84-1.16,7.59,7.59,0,0,1,2.27.31,4.12,4.12,0,0,1,1.65,1,4.3,4.3,0,0,1,1,1.76,8.55,8.55,0,0,1,.34,2.61v17.28h4.49V95a13.83,13.83,0,0,0-.59-4.38A7.71,7.71,0,0,0,388.4,87.63ZM149.33,76.83l-13.51,35.38h4.81L144,103h14.82l3.38,9.23H167l-13.59-35.4Zm-4,22.31,6-16.55,6,16.55Zm43.13.81a11.64,11.64,0,0,0-2.94-1.64,30.47,30.47,0,0,0-4.18-1.26,29,29,0,0,1-3-.82,7.52,7.52,0,0,1-1.86-.87,2.55,2.55,0,0,1-.92-1.06,3.27,3.27,0,0,1-.24-1.31,3.64,3.64,0,0,1,.29-1.42,3.23,3.23,0,0,1,.92-1.24,4.65,4.65,0,0,1,1.62-.88,7.75,7.75,0,0,1,2.39-.32,6.34,6.34,0,0,1,2.36.4,5.31,5.31,0,0,1,1.72,1A4.43,4.43,0,0,1,185.68,92a4,4,0,0,1,.37,1.62h4.52a7.7,7.7,0,0,0-.68-3.2,7.54,7.54,0,0,0-2-2.61,9.54,9.54,0,0,0-3.16-1.76,12.88,12.88,0,0,0-4.22-.65,12.34,12.34,0,0,0-4,.62,9.25,9.25,0,0,0-3.06,1.68,7.65,7.65,0,0,0-2,2.45,6.63,6.63,0,0,0-.69,3,5.85,5.85,0,0,0,.66,2.84,6.12,6.12,0,0,0,1.88,2.1,11.93,11.93,0,0,0,3,1.52,28.26,28.26,0,0,0,3.93,1.09,19.07,19.07,0,0,1,3.14.9,6.58,6.58,0,0,1,1.83,1.06,2.92,2.92,0,0,1,.87,1.21,4.62,4.62,0,0,1,.21,1.38,3.21,3.21,0,0,1-.36,1.49,3.46,3.46,0,0,1-1.08,1.2,5.75,5.75,0,0,1-1.76.81,9.45,9.45,0,0,1-2.43.29,9.62,9.62,0,0,1-2.14-.24,6.28,6.28,0,0,1-2-.83,4.91,4.91,0,0,1-1.49-1.52,4.73,4.73,0,0,1-.67-2.32h-4.5a7.53,7.53,0,0,0,.71,3.17,8,8,0,0,0,2.06,2.75A10.48,10.48,0,0,0,176,112a13.52,13.52,0,0,0,4.63.73,14.24,14.24,0,0,0,4.15-.57,9.94,9.94,0,0,0,3.21-1.59,6.91,6.91,0,0,0,2.77-5.62,6.53,6.53,0,0,0-.57-2.82A6.16,6.16,0,0,0,188.5,100Z"/></g></g></svg>