<svg xmlns="http://www.w3.org/2000/svg" xmlns:xlink="http://www.w3.org/1999/xlink" viewBox="0 0 613.03 167.53"><defs><style>.cls-1{fill:none;}.cls-2{fill:url(#Unbenannter_Verlauf);}</style><linearGradient id="Unbenannter_Verlauf" x1="24.36" y1="251.59" x2="142.96" y2="132.99" gradientTransform="matrix(1, 0, 0, -1, 0, 276)" gradientUnits="userSpaceOnUse"><stop offset="0" stop-color="#e228c7"/><stop offset="0.15" stop-color="#bb4dd3"/><stop offset="0.35" stop-color="#8a7be3"/><stop offset="0.55" stop-color="#649fef"/><stop offset="0.72" stop-color="#49b9f8"/><stop offset="0.88" stop-color="#38c8fd"/><stop offset="1" stop-color="#32ceff"/></linearGradient></defs><g id="Ebene_2" data-name="Ebene 2"><g id="Ebene_1-2" data-name="Ebene 1"><rect class="cls-1" width="613.03" height="167.53"/><path d="M311.15,56.85a4.94,4.94,0,0,0,1.74,1.06,6.59,6.59,0,0,0,2.29.38,6.37,6.37,0,0,0,2.29-.38,5,5,0,0,0,1.75-1.06,4.64,4.64,0,0,0,1.11-1.62,5.5,5.5,0,0,0,0-4.07,4.64,4.64,0,0,0-1.11-1.62,5,5,0,0,0-1.75-1.06,6.59,6.59,0,0,0-2.29-.38,5.58,5.58,0,0,0-4.05,1.44,4.82,4.82,0,0,0-1.48,3.65,5.25,5.25,0,0,0,.39,2.07A4.53,4.53,0,0,0,311.15,56.85ZM293,152.26a6.23,6.23,0,0,1-2.45,2.8,8.28,8.28,0,0,1-4.41,1,6.08,6.08,0,0,1-1.8-.26,3.61,3.61,0,0,1-1.55-.92,4.66,4.66,0,0,1-1.1-1.82,8.84,8.84,0,0,1-.41-2.93v-17h-4.49v17a13.93,13.93,0,0,0,.62,4.49,8,8,0,0,0,1.76,3,6.92,6.92,0,0,0,2.72,1.73,10.75,10.75,0,0,0,3.52.55,11.53,11.53,0,0,0,4.57-.82,8.34,8.34,0,0,0,3.14-2.27l.09,2.6h4.28v-26.3H293Zm6-86.95a9.23,9.23,0,0,0-3.86-2.49,15.41,15.41,0,0,0-5-.77,12.16,12.16,0,0,0-5.56,1.25,13.23,13.23,0,0,0-4.32,3.47V47.22h-9.88V99.71h9.88V73.43A6.55,6.55,0,0,1,282.62,71a7.41,7.41,0,0,1,3.86-.91,9.24,9.24,0,0,1,2.51.31,4.12,4.12,0,0,1,1.86,1,4.73,4.73,0,0,1,1.15,2,9.52,9.52,0,0,1,.39,3V99.71h9.88V76.4a21.87,21.87,0,0,0-.88-6.63,11.67,11.67,0,0,0-2.47-4.46Zm23.94,71a9.45,9.45,0,0,0-3.37-2.71,11.33,11.33,0,0,0-4.86-1,10.6,10.6,0,0,0-4.3.91,11.17,11.17,0,0,0-3.67,2.64,12.91,12.91,0,0,0-2.56,4.25,16.07,16.07,0,0,0-1,5.74v1a14.76,14.76,0,0,0,.85,5.1,11.27,11.27,0,0,0,2.43,4,11,11,0,0,0,3.8,2.64,12.61,12.61,0,0,0,5,1,13.47,13.47,0,0,0,3.52-.43,10.58,10.58,0,0,0,2.76-1.14,10.43,10.43,0,0,0,2.11-1.63,13.81,13.81,0,0,0,1.53-1.88l-2.75-2.14a10,10,0,0,1-2.89,2.57,7.77,7.77,0,0,1-4,1,7.46,7.46,0,0,1-3.22-.68,7.85,7.85,0,0,1-2.43-1.85,8.14,8.14,0,0,1-1.55-2.75,11.26,11.26,0,0,1-.6-3.4h17.82v-2a19.22,19.22,0,0,0-.64-5.12,11.54,11.54,0,0,0-2.06-4ZM321,143.88H307.78a12.13,12.13,0,0,1,.81-3.24,7.85,7.85,0,0,1,1.5-2.35,6.5,6.5,0,0,1,7.43-1.32,5.65,5.65,0,0,1,1.91,1.66,6.93,6.93,0,0,1,1.1,2.31,12.7,12.7,0,0,1,.42,2.6Zm-55.8,15.55h4.5V122.1h-4.5ZM265.43,92a11.39,11.39,0,0,1-1.29.17c-.54,0-1.08.07-1.62.07a7.71,7.71,0,0,1-1.66-.15A2.38,2.38,0,0,1,259,90.35a6.21,6.21,0,0,1-.24-1.92V70h6.32V62.73h-6.32V53.64h-9.88v9.09h-5.4V70h5.4V89.49a14.87,14.87,0,0,0,.75,5,8.59,8.59,0,0,0,2.14,3.38,8.32,8.32,0,0,0,3.33,1.89,14.75,14.75,0,0,0,4.38.6,19.11,19.11,0,0,0,3.29-.25,22.39,22.39,0,0,0,2.69-.64Zm-7.71,61.67v-12.2a9.47,9.47,0,0,0-.73-3.86,7.6,7.6,0,0,0-2-2.76,8.3,8.3,0,0,0-3.1-1.65,13.56,13.56,0,0,0-4-.55,12.64,12.64,0,0,0-4.31.69,10.88,10.88,0,0,0-3.29,1.8,8.29,8.29,0,0,0-2.11,2.49,6,6,0,0,0-.74,2.8H242a3.25,3.25,0,0,1,.42-1.58,4.32,4.32,0,0,1,1.15-1.33,6.05,6.05,0,0,1,1.79-.91,7.27,7.27,0,0,1,2.31-.34,5.68,5.68,0,0,1,4.15,1.4,5,5,0,0,1,1.41,3.75v2.07h-4.47a19.63,19.63,0,0,0-4.89.56,11.35,11.35,0,0,0-3.73,1.65,7.42,7.42,0,0,0-2.36,2.71,8,8,0,0,0-.83,3.73,7.35,7.35,0,0,0,2.42,5.52,8.76,8.76,0,0,0,2.79,1.65,10.85,10.85,0,0,0,6,.35,9.7,9.7,0,0,0,3.75-1.75,12.09,12.09,0,0,0,1.42-1.25c.07.53.15,1.05.25,1.54a4.41,4.41,0,0,0,.39,1.23h4.71V159a10.17,10.17,0,0,1-.69-2.54,18.39,18.39,0,0,1-.24-2.77Zm-4.5-1.62a6,6,0,0,1-1,1.45,7.33,7.33,0,0,1-1.52,1.26,8.7,8.7,0,0,1-1.94.88,7.37,7.37,0,0,1-2.28.34,6,6,0,0,1-2.18-.35,4.52,4.52,0,0,1-1.58-1,3.64,3.64,0,0,1-1-1.42,5.13,5.13,0,0,1-.32-1.77,4,4,0,0,1,2.09-3.64,12.07,12.07,0,0,1,6-1.2h3.74Zm57-52.36h9.91v-37h-9.91Zm-90.67,53.52L209.5,124.05h-5.08l13.1,35.38h4.13l13.12-35.38h-5.1Zm22-61.76h-23.1V78.15h19.68v-8H218.44V58.26h23V50H208.18V99.71h33.36Zm254.75,55.7a11.64,11.64,0,0,0-2.94-1.64,30.47,30.47,0,0,0-4.18-1.26,29.18,29.18,0,0,1-3.05-.82,7.89,7.89,0,0,1-1.86-.87,2.65,2.65,0,0,1-.93-1.06,3.46,3.46,0,0,1-.24-1.31,3.64,3.64,0,0,1,.29-1.42,3.25,3.25,0,0,1,.93-1.24,4.52,4.52,0,0,1,1.61-.88,7.53,7.53,0,0,1,2.4-.33,6.49,6.49,0,0,1,2.35.4,5.75,5.75,0,0,1,1.73,1,4.19,4.19,0,0,1,1.07,1.46,4.06,4.06,0,0,1,.36,1.61h4.52A7.54,7.54,0,0,0,495.7,135a9.64,9.64,0,0,0-3.16-1.76,12.81,12.81,0,0,0-4.21-.64,12.08,12.08,0,0,0-4,.62,9.68,9.68,0,0,0-3.07,1.68,7.38,7.38,0,0,0-1.95,2.45,6.59,6.59,0,0,0-.69,3,5.88,5.88,0,0,0,.65,2.85,6.31,6.31,0,0,0,1.88,2.1,12.64,12.64,0,0,0,3,1.52,29.85,29.85,0,0,0,3.94,1.09,19,19,0,0,1,3.13.9,6.49,6.49,0,0,1,1.84,1.06,2.81,2.81,0,0,1,.86,1.21,4.29,4.29,0,0,1,.22,1.38,3.21,3.21,0,0,1-.36,1.49,3.59,3.59,0,0,1-1.09,1.2,5.4,5.4,0,0,1-1.76.8,9.67,9.67,0,0,1-4.57,0,6,6,0,0,1-2-.82,5.06,5.06,0,0,1-1.5-1.52,4.73,4.73,0,0,1-.67-2.32H477.7a7.55,7.55,0,0,0,.7,3.17,8.18,8.18,0,0,0,2.07,2.74,10.46,10.46,0,0,0,3.36,1.94,13.76,13.76,0,0,0,4.63.73,13.94,13.94,0,0,0,4.16-.58,10.15,10.15,0,0,0,3.21-1.59,7.14,7.14,0,0,0,2.05-2.45,7,7,0,0,0,.72-3.16,6.51,6.51,0,0,0-.58-2.82,5.91,5.91,0,0,0-1.73-2.08Zm70.36-10.83a9.13,9.13,0,0,0-3.36-2.71,11.33,11.33,0,0,0-4.86-1,10.69,10.69,0,0,0-4.31.91,11.13,11.13,0,0,0-3.66,2.64,12.94,12.94,0,0,0-2.57,4.25,16.07,16.07,0,0,0-1,5.74v1a14.76,14.76,0,0,0,.85,5.1,11.75,11.75,0,0,0,2.43,4A11,11,0,0,0,554,159a12.6,12.6,0,0,0,5,.95,13.47,13.47,0,0,0,3.52-.43,10.58,10.58,0,0,0,2.76-1.14,10.37,10.37,0,0,0,2.1-1.63,13.09,13.09,0,0,0,1.53-1.88l-2.75-2.14a10,10,0,0,1-2.89,2.57,7.77,7.77,0,0,1-4,1,7.21,7.21,0,0,1-5.65-2.53A8.49,8.49,0,0,1,552,151a11.24,11.24,0,0,1-.59-3.4h17.81v-2a20.06,20.06,0,0,0-.63-5.12,11.32,11.32,0,0,0-1.94-4.14Zm-1.9,7.54H551.57a12.15,12.15,0,0,1,.82-3.24,7.63,7.63,0,0,1,1.49-2.35,6.51,6.51,0,0,1,7.44-1.32,5.86,5.86,0,0,1,1.91,1.66,7.1,7.1,0,0,1,1.09,2.31,12.72,12.72,0,0,1,.43,2.6Zm-25.75-9a6.73,6.73,0,0,0-2.76-1.71,11.57,11.57,0,0,0-3.74-.55,9.84,9.84,0,0,0-8.42,4.23,6.61,6.61,0,0,0-3-3.22,9.78,9.78,0,0,0-4.51-1,10.56,10.56,0,0,0-4.5.9,9.54,9.54,0,0,0-3.3,2.5l-.12-2.92h-4.25v26.3h4.49v-19.2a6.07,6.07,0,0,1,6.06-3.77,7.93,7.93,0,0,1,2.32.32,4.3,4.3,0,0,1,1.76,1,4.56,4.56,0,0,1,1.13,1.76,7.46,7.46,0,0,1,.4,2.61v17.28h4.52V142a7,7,0,0,1,.57-2.15,5.58,5.58,0,0,1,3.05-2.93,6.6,6.6,0,0,1,2.45-.44,9.46,9.46,0,0,1,2.31.26,4,4,0,0,1,1.78.91,4.34,4.34,0,0,1,1.13,1.75,8,8,0,0,1,.4,2.75v17.3h4.49v-17.3a14.09,14.09,0,0,0-.58-4.28,7.46,7.46,0,0,0-1.69-3Zm53.84-.06a6.39,6.39,0,0,0-2.65-1.68,10.8,10.8,0,0,0-3.48-.52,9.87,9.87,0,0,0-4.47,1,10.28,10.28,0,0,0-3.4,2.78l-.15-3.31h-4.25v26.3H579V140.69a7.94,7.94,0,0,1,2.57-3.06,6.43,6.43,0,0,1,3.84-1.17,7.6,7.6,0,0,1,2.27.32,3.88,3.88,0,0,1,1.66,1,4.3,4.3,0,0,1,1,1.76,8.87,8.87,0,0,1,.34,2.61v17.28h4.49V142.2a14.49,14.49,0,0,0-.59-4.39,7.9,7.9,0,0,0-1.69-3ZM612.07,156a6.64,6.64,0,0,1-1.18.11,5.65,5.65,0,0,1-1.08-.11,2,2,0,0,1-1.56-1.45,4.36,4.36,0,0,1-.25-1.64v-16.3h4.91v-3.48H608v-6.36h-4.49v6.36h-4.79v3.48h4.79v16.28a9.82,9.82,0,0,0,.48,3.32,5.82,5.82,0,0,0,1.31,2.17,4.69,4.69,0,0,0,1.94,1.18,7.47,7.47,0,0,0,2.34.36,11.05,11.05,0,0,0,2.07-.17c.56-.12,1-.22,1.38-.32v-3.65ZM351.2,99.71h11.35L348,78.15l13.36-15.42H349.53l-9.47,11.11-1.91,2.46V47.22h-9.88V99.71h9.88V88.43l3.55-3.55Zm41.73,47.46a11.64,11.64,0,0,0-2.94-1.64,27.91,27.91,0,0,0-4.18-1.26,29.18,29.18,0,0,1-3.05-.82,8.08,8.08,0,0,1-1.86-.87,2.55,2.55,0,0,1-.92-1.06,3.46,3.46,0,0,1-.24-1.31,3.64,3.64,0,0,1,.29-1.42,3.23,3.23,0,0,1,.92-1.24,4.65,4.65,0,0,1,1.62-.88,7.43,7.43,0,0,1,2.39-.33,6.58,6.58,0,0,1,2.36.4,5.7,5.7,0,0,1,1.72,1,4.19,4.19,0,0,1,1.07,1.46,3.72,3.72,0,0,1,.37,1.61H395a7.48,7.48,0,0,0-2.68-5.81,9.64,9.64,0,0,0-3.16-1.76,12.87,12.87,0,0,0-4.22-.64,12.34,12.34,0,0,0-4,.62,9.16,9.16,0,0,0-3.06,1.68,7.65,7.65,0,0,0-2,2.45,6.63,6.63,0,0,0-.69,3,5.89,5.89,0,0,0,.66,2.85,6,6,0,0,0,1.88,2.1,11.61,11.61,0,0,0,3,1.52,29.71,29.71,0,0,0,3.93,1.09,19.07,19.07,0,0,1,3.14.9,6.58,6.58,0,0,1,1.83,1.06,2.92,2.92,0,0,1,.87,1.21,4.62,4.62,0,0,1,.21,1.38,3.21,3.21,0,0,1-.36,1.49,3.46,3.46,0,0,1-1.08,1.2,5.4,5.4,0,0,1-1.76.8,10.4,10.4,0,0,1-4.51.1,6,6,0,0,1-2-.82,5.06,5.06,0,0,1-1.5-1.52,4.86,4.86,0,0,1-.66-2.32h-4.5a7.53,7.53,0,0,0,.71,3.17,8.15,8.15,0,0,0,2.06,2.74,10.4,10.4,0,0,0,3.37,1.94,13.52,13.52,0,0,0,4.63.73,13.92,13.92,0,0,0,4.15-.58,9.84,9.84,0,0,0,3.21-1.59,6.87,6.87,0,0,0,2.77-5.61,6.53,6.53,0,0,0-.57-2.82,6,6,0,0,0-1.74-2.15Zm-39.17-23.12-13.51,35.38h4.81l3.33-9.23h14.82l3.38,9.23h4.79l-13.54-35.38Zm-4,22.31,6-16.55,6,16.55Zm68.79.81a11.3,11.3,0,0,0-2.94-1.64,27.91,27.91,0,0,0-4.18-1.26,29.18,29.18,0,0,1-3.05-.82,8,8,0,0,1-1.85-.87,2.39,2.39,0,0,1-.93-1.06,3.46,3.46,0,0,1-.24-1.31,3.64,3.64,0,0,1,.29-1.42,3.23,3.23,0,0,1,.92-1.24,4.65,4.65,0,0,1,1.62-.88,7.43,7.43,0,0,1,2.39-.33,6.58,6.58,0,0,1,2.36.4,5.75,5.75,0,0,1,1.73,1,4.52,4.52,0,0,1,1.07,1.46,4.06,4.06,0,0,1,.36,1.61h4.52a7.62,7.62,0,0,0-.68-3.19,7.45,7.45,0,0,0-2-2.62,9.64,9.64,0,0,0-3.16-1.76,12.87,12.87,0,0,0-4.22-.64,12.34,12.34,0,0,0-4,.62,9.74,9.74,0,0,0-3.06,1.68,7.38,7.38,0,0,0-1.95,2.45,6.52,6.52,0,0,0-.7,3,5.89,5.89,0,0,0,.66,2.85,6.31,6.31,0,0,0,1.88,2.1,11.61,11.61,0,0,0,3,1.52,29.85,29.85,0,0,0,3.94,1.09,19,19,0,0,1,3.13.9,6.49,6.49,0,0,1,1.84,1.06,3,3,0,0,1,.86,1.21,4.33,4.33,0,0,1,.22,1.38A3.06,3.06,0,0,1,416,154a3.46,3.46,0,0,1-1.08,1.2,5.4,5.4,0,0,1-1.76.8,9.67,9.67,0,0,1-4.57.05,6,6,0,0,1-2-.82,4.91,4.91,0,0,1-1.49-1.52,4.73,4.73,0,0,1-.67-2.32H400a7.53,7.53,0,0,0,.71,3.17,8.28,8.28,0,0,0,2.06,2.74,10.4,10.4,0,0,0,3.37,1.94,13.76,13.76,0,0,0,4.63.73,13.92,13.92,0,0,0,4.15-.58,9.84,9.84,0,0,0,3.21-1.59,6.81,6.81,0,0,0,2.77-5.61,6.53,6.53,0,0,0-.57-2.82,6,6,0,0,0-1.74-2.2Zm52,0a11.3,11.3,0,0,0-2.94-1.64,27.91,27.91,0,0,0-4.18-1.26,28.3,28.3,0,0,1-3-.82,7.89,7.89,0,0,1-1.86-.87,2.39,2.39,0,0,1-.93-1.06,3.46,3.46,0,0,1-.24-1.31,3.64,3.64,0,0,1,.29-1.42,3.41,3.41,0,0,1,.92-1.24,4.65,4.65,0,0,1,1.62-.88,7.43,7.43,0,0,1,2.39-.33,6.58,6.58,0,0,1,2.36.4,5.75,5.75,0,0,1,1.73,1,4.52,4.52,0,0,1,1.07,1.46,4.06,4.06,0,0,1,.36,1.61h4.52a7.62,7.62,0,0,0-.68-3.19,7.45,7.45,0,0,0-2-2.62,9.54,9.54,0,0,0-3.16-1.76,12.87,12.87,0,0,0-4.22-.64,12.34,12.34,0,0,0-4,.62,9.74,9.74,0,0,0-3.06,1.68,7.42,7.42,0,0,0-2,2.45,6.52,6.52,0,0,0-.7,3,5.89,5.89,0,0,0,.66,2.85,6.31,6.31,0,0,0,1.88,2.1,11.61,11.61,0,0,0,3,1.52,29.85,29.85,0,0,0,3.94,1.09,19,19,0,0,1,3.13.9,6.49,6.49,0,0,1,1.84,1.06,2.89,2.89,0,0,1,.86,1.21,4,4,0,0,1,.22,1.38A3.1,3.1,0,0,1,468,154a3.46,3.46,0,0,1-1.08,1.2,5.4,5.4,0,0,1-1.76.8,9.55,9.55,0,0,1-4.57,0,6,6,0,0,1-2-.82,4.91,4.91,0,0,1-1.49-1.52,4.73,4.73,0,0,1-.67-2.32H452a7.53,7.53,0,0,0,.71,3.17,8.28,8.28,0,0,0,2.06,2.74,10.4,10.4,0,0,0,3.37,1.94,13.76,13.76,0,0,0,4.63.73,13.94,13.94,0,0,0,4.16-.58,10.1,10.1,0,0,0,3.2-1.59,6.81,6.81,0,0,0,2.77-5.61,6.53,6.53,0,0,0-.57-2.82,6,6,0,0,0-1.71-2.1Zm-25.28-10.83a9.16,9.16,0,0,0-3.37-2.71,11.33,11.33,0,0,0-4.86-1,10.6,10.6,0,0,0-4.3.91,11.17,11.17,0,0,0-3.67,2.64,12.91,12.91,0,0,0-2.56,4.25,16.07,16.07,0,0,0-1,5.74v1a14.76,14.76,0,0,0,.85,5.1,11.75,11.75,0,0,0,2.43,4,11,11,0,0,0,3.8,2.64,12.61,12.61,0,0,0,5,1,13.54,13.54,0,0,0,3.53-.43,11,11,0,0,0,2.75-1.14,10.43,10.43,0,0,0,2.11-1.63,13.09,13.09,0,0,0,1.53-1.88l-2.75-2.14a10,10,0,0,1-2.89,2.57,7.77,7.77,0,0,1-4,1,7.46,7.46,0,0,1-3.22-.68,7.85,7.85,0,0,1-2.43-1.85,8.14,8.14,0,0,1-1.55-2.75,11.26,11.26,0,0,1-.6-3.4h17.82v-2a19.22,19.22,0,0,0-.64-5.12,11.43,11.43,0,0,0-1.91-4.07Zm-1.91,7.54h-13.1a12.52,12.52,0,0,1,.81-3.24,7.85,7.85,0,0,1,1.5-2.35,6,6,0,0,1,4.54-1.95A5.93,5.93,0,0,1,440,137a5.65,5.65,0,0,1,1.91,1.66A6.77,6.77,0,0,1,443,141a12.7,12.7,0,0,1,.42,2.6Z"/><path class="cls-2" d="M138.74,147.23a83.66,83.66,0,0,1-49,20.3v-12a71.69,71.69,0,0,0,40.45-16.79ZM12,77.76A72.09,72.09,0,0,1,77.76,12V0A84,84,0,0,0,0,77.76ZM129.89,37,92.63,92.6l-55.37,37L75,74.92ZM88.32,79.22a6,6,0,1,0,0,8.49,6,6,0,0,0,0-8.49ZM48.37,89.68A35.95,35.95,0,0,1,89.79,48.26l6.07-4.75A42,42,0,0,0,43.63,95.75Zm71-12a36,36,0,0,1-41.56,41.56l-6.14,4.7a42,42,0,0,0,52.41-52.4ZM77.87,155.5A72,72,0,0,1,12.14,89.76h-6a78.09,78.09,0,0,0,71.74,71.75ZM89.87,12a71.65,71.65,0,0,1,40.49,16.8l4.22-4.23A77.57,77.57,0,0,0,89.87,6Z"/></g></g></svg>